<svg width="241" height="54" viewBox="0 0 241 54" fill="none" xmlns="http://www.w3.org/2000/svg">
<path fill-rule="evenodd" clip-rule="evenodd" d="M67.0649 53.9993L51.9831 29L50.1924 26.2581L48.1467 22.6408L34.7744 0.475283L35.6497 -0.0083313L46.6971 18.3036V13.2317H51.7086L55.7894 20.4962L59.6133 13.3115H64.5811L64.7441 30.6936H59.6133V22.6613L58.123 24.2461L55.6391 27.0986L53.652 24.7215L52.2511 22.7604V27.5097L67.9402 53.5157L67.0649 53.9993ZM0 48.9678L25.8324 5.22947L29.8067 11.4099L10.4323 43.2628H14.9033L31.7938 14.7378L51.6649 48.9678H22.8518L26.3292 43.2628H41.7293L31.7938 26.6232L18.8775 48.9678H0ZM224.543 30.2649C225.8 30.7099 227.161 30.9324 228.624 30.9324C230.105 30.9324 231.466 30.7099 232.706 30.2649C233.946 29.8199 235.022 29.1936 235.935 28.3861C236.848 27.562 237.554 26.5979 238.053 25.4936C238.57 24.3894 238.828 23.1863 238.828 21.8843C238.828 20.5658 238.57 19.3626 238.053 18.2749C237.554 17.1707 236.848 16.2148 235.935 15.4072C235.022 14.5831 233.946 13.9486 232.706 13.5036C231.466 13.0586 230.105 12.8361 228.624 12.8361C227.161 12.8361 225.8 13.0586 224.543 13.5036C223.303 13.9486 222.227 14.5831 221.314 15.4072C220.401 16.2148 219.686 17.1707 219.17 18.2749C218.67 19.3626 218.421 20.5658 218.421 21.8843C218.421 23.1863 218.67 24.3894 219.17 25.4936C219.686 26.5979 220.401 27.562 221.314 28.3861C222.227 29.1936 223.303 29.8199 224.543 30.2649ZM230.2 25.9139C229.718 26.1117 229.193 26.2105 228.624 26.2105C228.056 26.2105 227.522 26.1117 227.023 25.9139C226.541 25.7161 226.11 25.4359 225.731 25.0733C225.37 24.6943 225.085 24.2411 224.879 23.7137C224.672 23.1698 224.569 22.56 224.569 21.8843C224.569 21.2085 224.672 20.607 224.879 20.0796C225.085 19.5357 225.37 19.0825 225.731 18.7199C226.11 18.3408 226.541 18.0524 227.023 17.8546C227.522 17.6568 228.056 17.558 228.624 17.558C229.193 17.558 229.718 17.6568 230.2 17.8546C230.7 18.0524 231.13 18.3408 231.492 18.7199C231.871 19.0825 232.163 19.5357 232.37 20.0796C232.577 20.607 232.68 21.2085 232.68 21.8843C232.68 22.56 232.577 23.1698 232.37 23.7137C232.163 24.2411 231.871 24.6943 231.492 25.0733C231.13 25.4359 230.7 25.7161 230.2 25.9139ZM201.903 30.5368V13.2317H207.999V26.0128H216.162V30.5368H201.903ZM184.409 13.2317V30.5368H198.669V26.0128H190.506V13.2317H184.409ZM171.471 26.1364V23.862H179.118V19.6593H171.471V17.6321H180.177V13.2317H165.478V30.5368H180.513V26.1364H171.471ZM150.027 30.2896C151.267 30.7181 152.61 30.9324 154.056 30.9324C155.83 30.9324 157.397 30.6357 158.758 30.0424C160.136 29.4326 161.272 28.5756 162.168 27.4714L158.319 24.1834C157.785 24.8261 157.191 25.3288 156.536 25.6914C155.899 26.0375 155.176 26.2105 154.366 26.2105C153.729 26.2105 153.152 26.1117 152.636 25.9139C152.119 25.7161 151.671 25.4277 151.292 25.0486C150.931 24.6696 150.647 24.2163 150.44 23.6889C150.233 23.1451 150.13 22.5435 150.13 21.8843C150.13 21.225 150.233 20.6317 150.44 20.1043C150.647 19.5604 150.931 19.0989 151.292 18.7199C151.671 18.3408 152.119 18.0524 152.636 17.8546C153.152 17.6568 153.729 17.558 154.366 17.558C155.176 17.558 155.899 17.7393 156.536 18.1018C157.191 18.4479 157.785 18.9424 158.319 19.5851L162.168 16.2972C161.272 15.1764 160.136 14.3194 158.758 13.7261C157.397 13.1328 155.83 12.8361 154.056 12.8361C152.61 12.8361 151.267 13.0586 150.027 13.5036C148.804 13.9321 147.736 14.5502 146.823 15.3577C145.928 16.1653 145.23 17.1212 144.731 18.2254C144.232 19.3297 143.982 20.5493 143.982 21.8843C143.982 23.2192 144.232 24.4388 144.731 25.5431C145.23 26.6473 145.928 27.6032 146.823 28.4108C147.736 29.2183 148.804 29.8446 150.027 30.2896ZM134.124 30.5368V13.2317H140.22V30.5368H134.124ZM119.598 17.7557V30.5368H125.695V17.7557H130.991V13.2317H114.303V17.7557H119.598ZM93.3601 30.5368V13.2317H98.3716L105.243 21.1007V13.2317H111.185V30.5368H106.173L99.3016 22.6678V30.5368H93.3601ZM75.3121 30.2649C76.5693 30.7099 77.9298 30.9324 79.3937 30.9324C80.8747 30.9324 82.2353 30.7099 83.4752 30.2649C84.7152 29.8199 85.7915 29.1936 86.7043 28.3861C87.617 27.562 88.3231 26.5979 88.8225 25.4936C89.3392 24.3894 89.5975 23.1863 89.5975 21.8843C89.5975 20.5658 89.3392 19.3626 88.8225 18.2749C88.3231 17.1707 87.617 16.2148 86.7043 15.4072C85.7915 14.5831 84.7152 13.9486 83.4752 13.5036C82.2353 13.0586 80.8747 12.8361 79.3937 12.8361C77.9298 12.8361 76.5693 13.0586 75.3121 13.5036C74.0722 13.9486 72.9958 14.5831 72.0831 15.4072C71.1704 16.2148 70.4557 17.1707 69.939 18.2749C69.4396 19.3626 69.1899 20.5658 69.1899 21.8843C69.1899 23.1863 69.4396 24.3894 69.939 25.4936C70.4557 26.5979 71.1704 27.562 72.0831 28.3861C72.9958 29.1936 74.0722 29.8199 75.3121 30.2649ZM80.9695 25.9139C80.4873 26.1117 79.962 26.2105 79.3937 26.2105C78.8254 26.2105 78.2915 26.1117 77.7921 25.9139C77.3099 25.7161 76.8793 25.4359 76.5005 25.0733C76.1388 24.6943 75.8546 24.2411 75.648 23.7137C75.4413 23.1698 75.338 22.56 75.338 21.8843C75.338 21.2085 75.4413 20.607 75.648 20.0796C75.8546 19.5357 76.1388 19.0825 76.5005 18.7199C76.8793 18.3408 77.3099 18.0524 77.7921 17.8546C78.2915 17.6568 78.8254 17.558 79.3937 17.558C79.962 17.558 80.4873 17.6568 80.9695 17.8546C81.4689 18.0524 81.8994 18.3408 82.2611 18.7199C82.64 19.0825 82.9327 19.5357 83.1394 20.0796C83.346 20.607 83.4494 21.2085 83.4494 21.8843C83.4494 22.56 83.346 23.1698 83.1394 23.7137C82.9327 24.2411 82.64 24.6943 82.2611 25.0733C81.8994 25.4359 81.4689 25.7161 80.9695 25.9139ZM70.6889 39.607V46.607H71.4289V39.607H70.6889ZM76.3065 39.607V46.607H77.0465V40.9306L81.5465 46.607H82.1565V39.607H81.4265V45.2842L76.9165 39.607H76.3065ZM88.4012 40.247V46.607H89.1412V40.247H91.6012V39.607H85.9412V40.247H88.4012ZM96.1234 43.367V45.967H100.333V46.607H95.3834V39.607H100.183V40.247H96.1234V42.737H99.7434V43.367H96.1234ZM104.673 39.607V46.607H105.413V44.387H107.293C107.49 44.387 107.679 44.3766 107.858 44.3559L109.453 46.607H110.263L108.554 44.2087C108.647 44.1786 108.737 44.1447 108.823 44.107C109.25 43.9136 109.576 43.6403 109.803 43.287C110.036 42.927 110.153 42.5003 110.153 42.007C110.153 41.5003 110.036 41.0703 109.803 40.717C109.576 40.357 109.25 40.0836 108.823 39.897C108.396 39.7036 107.886 39.607 107.293 39.607H104.673ZM105.413 43.757H107.273C107.973 43.757 108.503 43.6036 108.863 43.297C109.23 42.9903 109.413 42.5603 109.413 42.007C109.413 41.447 109.23 41.0136 108.863 40.707C108.503 40.4003 107.973 40.247 107.273 40.247H105.413V43.757ZM114.499 39.607V46.607H115.239V40.9306L119.739 46.607H120.349V39.607H119.619V45.2842L115.109 39.607H114.499ZM127.314 39.607L124.114 46.607H124.884L125.721 44.737H129.627L130.464 46.607H131.244L128.044 39.607H127.314ZM129.359 44.137L127.674 40.3722L125.99 44.137H129.359ZM136.011 40.247V46.607H136.751V40.247H139.211V39.607H133.551V40.247H136.011ZM142.993 39.607V46.607H143.733V39.607H142.993ZM150.2 46.407C150.654 46.5803 151.144 46.667 151.67 46.667C152.197 46.667 152.684 46.5803 153.13 46.407C153.577 46.227 153.964 45.977 154.29 45.657C154.624 45.337 154.88 44.9603 155.06 44.527C155.247 44.0936 155.34 43.6203 155.34 43.107C155.34 42.5936 155.247 42.1203 155.06 41.687C154.88 41.2536 154.624 40.877 154.29 40.557C153.964 40.237 153.577 39.9903 153.13 39.817C152.684 39.637 152.197 39.547 151.67 39.547C151.137 39.547 150.647 39.637 150.2 39.817C149.754 39.9903 149.364 40.2403 149.03 40.567C148.704 40.887 148.447 41.2636 148.26 41.697C148.08 42.1236 147.99 42.5936 147.99 43.107C147.99 43.6203 148.08 44.0936 148.26 44.527C148.447 44.9536 148.704 45.3303 149.03 45.657C149.364 45.977 149.754 46.227 150.2 46.407ZM152.83 45.797C152.477 45.937 152.09 46.007 151.67 46.007C151.25 46.007 150.86 45.937 150.5 45.797C150.14 45.6503 149.827 45.447 149.56 45.187C149.3 44.9203 149.094 44.6103 148.94 44.257C148.794 43.9036 148.72 43.5203 148.72 43.107C148.72 42.687 148.794 42.3036 148.94 41.957C149.094 41.6036 149.3 41.297 149.56 41.037C149.827 40.7703 150.14 40.567 150.5 40.427C150.86 40.2803 151.25 40.207 151.67 40.207C152.09 40.207 152.477 40.2803 152.83 40.427C153.19 40.567 153.5 40.7703 153.76 41.037C154.027 41.297 154.234 41.6036 154.38 41.957C154.527 42.3036 154.6 42.687 154.6 43.107C154.6 43.527 154.527 43.9136 154.38 44.267C154.234 44.6136 154.027 44.9203 153.76 45.187C153.5 45.447 153.19 45.6503 152.83 45.797ZM160.209 39.607H159.599V46.607H160.339V40.9306L164.839 46.607H165.449V39.607H164.719V45.2842L160.209 39.607ZM173.144 39.607H172.414L169.214 46.607H169.984L170.821 44.737H174.727L175.564 46.607H176.344L173.144 39.607ZM174.459 44.137L172.774 40.3722L171.089 44.137H174.459ZM180.842 39.607H180.102V46.607H184.762V45.967H180.842V39.607ZM195.398 46.407C195.851 46.5803 196.344 46.667 196.878 46.667C197.364 46.667 197.831 46.5936 198.278 46.447C198.724 46.2936 199.114 46.0703 199.448 45.777V43.107H198.738V45.4613C198.518 45.6226 198.285 45.7445 198.038 45.827C197.684 45.947 197.308 46.007 196.908 46.007C196.481 46.007 196.084 45.937 195.718 45.797C195.358 45.6503 195.041 45.447 194.768 45.187C194.501 44.9203 194.291 44.6103 194.138 44.257C193.991 43.9036 193.918 43.5203 193.918 43.107C193.918 42.687 193.991 42.3036 194.138 41.957C194.291 41.6036 194.501 41.297 194.768 41.037C195.041 40.7703 195.358 40.567 195.718 40.427C196.084 40.2803 196.484 40.207 196.918 40.207C197.324 40.207 197.704 40.2703 198.058 40.397C198.411 40.5236 198.734 40.7336 199.028 41.027L199.488 40.557C199.174 40.217 198.794 39.9636 198.348 39.797C197.908 39.6303 197.421 39.547 196.888 39.547C196.354 39.547 195.861 39.637 195.408 39.817C194.961 39.9903 194.571 40.237 194.238 40.557C193.904 40.877 193.644 41.2536 193.458 41.687C193.278 42.1203 193.188 42.5936 193.188 43.107C193.188 43.6203 193.278 44.0936 193.458 44.527C193.644 44.9603 193.901 45.337 194.228 45.657C194.561 45.977 194.951 46.227 195.398 46.407ZM206.762 39.607H204.142V46.607H204.882V44.387H206.762C206.96 44.387 207.148 44.3766 207.327 44.3559L208.922 46.607H209.732L208.023 44.2087C208.116 44.1786 208.206 44.1447 208.292 44.107C208.719 43.9136 209.045 43.6403 209.272 43.287C209.505 42.927 209.622 42.5003 209.622 42.007C209.622 41.5003 209.505 41.0703 209.272 40.717C209.045 40.357 208.719 40.0836 208.292 39.897C207.865 39.7036 207.355 39.607 206.762 39.607ZM204.882 43.757H206.742C207.442 43.757 207.972 43.6036 208.332 43.297C208.699 42.9903 208.882 42.5603 208.882 42.007C208.882 41.447 208.699 41.0136 208.332 40.707C207.972 40.4003 207.442 40.247 206.742 40.247H204.882V43.757ZM215.559 46.407C216.012 46.5803 216.502 46.667 217.029 46.667C217.555 46.667 218.042 46.5803 218.489 46.407C218.935 46.227 219.322 45.977 219.649 45.657C219.982 45.337 220.239 44.9603 220.419 44.527C220.605 44.0936 220.699 43.6203 220.699 43.107C220.699 42.5936 220.605 42.1203 220.419 41.687C220.239 41.2536 219.982 40.877 219.649 40.557C219.322 40.237 218.935 39.9903 218.489 39.817C218.042 39.637 217.555 39.547 217.029 39.547C216.495 39.547 216.005 39.637 215.559 39.817C215.112 39.9903 214.722 40.2403 214.389 40.567C214.062 40.887 213.805 41.2636 213.619 41.697C213.439 42.1236 213.349 42.5936 213.349 43.107C213.349 43.6203 213.439 44.0936 213.619 44.527C213.805 44.9536 214.062 45.3303 214.389 45.657C214.722 45.977 215.112 46.227 215.559 46.407ZM218.189 45.797C217.835 45.937 217.449 46.007 217.029 46.007C216.609 46.007 216.219 45.937 215.859 45.797C215.499 45.6503 215.185 45.447 214.919 45.187C214.659 44.9203 214.452 44.6103 214.299 44.257C214.152 43.9036 214.079 43.5203 214.079 43.107C214.079 42.687 214.152 42.3036 214.299 41.957C214.452 41.6036 214.659 41.297 214.919 41.037C215.185 40.7703 215.499 40.567 215.859 40.427C216.219 40.2803 216.609 40.207 217.029 40.207C217.449 40.207 217.835 40.2803 218.189 40.427C218.549 40.567 218.859 40.7703 219.119 41.037C219.385 41.297 219.592 41.6036 219.739 41.957C219.885 42.3036 219.959 42.687 219.959 43.107C219.959 43.527 219.885 43.9136 219.739 44.267C219.592 44.6136 219.385 44.9203 219.119 45.187C218.859 45.447 218.549 45.6503 218.189 45.797ZM225.667 45.897C226.181 46.4103 226.884 46.667 227.777 46.667C228.671 46.667 229.371 46.4103 229.877 45.897C230.391 45.3836 230.647 44.6236 230.647 43.617V39.607H229.927V43.587C229.927 44.4136 229.741 45.0236 229.367 45.417C228.994 45.8103 228.464 46.007 227.777 46.007C227.097 46.007 226.571 45.8103 226.197 45.417C225.824 45.0236 225.637 44.4136 225.637 43.587V39.607H224.897V43.617C224.897 44.6236 225.154 45.3836 225.667 45.897ZM238.097 39.607H235.477V46.607H236.217V44.397H238.097C238.691 44.397 239.201 44.3003 239.627 44.107C240.054 43.9136 240.381 43.6403 240.607 43.287C240.841 42.927 240.957 42.5003 240.957 42.007C240.957 41.5003 240.841 41.0703 240.607 40.717C240.381 40.357 240.054 40.0836 239.627 39.897C239.201 39.7036 238.691 39.607 238.097 39.607ZM236.217 43.747H238.077C238.777 43.747 239.307 43.597 239.667 43.297C240.034 42.9903 240.217 42.5603 240.217 42.007C240.217 41.447 240.034 41.0136 239.667 40.707C239.307 40.4003 238.777 40.247 238.077 40.247H236.217V43.747Z" fill="white"/>
</svg>
